<?xml version="1.0" standalone="no"?><svg xmlns="http://www.w3.org/2000/svg" viewBox="0 0 1440 320"><path fill="#273036" fill-opacity="1" d="M0,96L34.3,106.7C68.6,117,137,139,206,176C274.3,213,343,267,411,266.7C480,267,549,213,617,192C685.7,171,754,181,823,160C891.4,139,960,85,1029,80C1097.1,75,1166,117,1234,144C1302.9,171,1371,181,1406,186.7L1440,192L1440,0L1405.7,0C1371.4,0,1303,0,1234,0C1165.7,0,1097,0,1029,0C960,0,891,0,823,0C754.3,0,686,0,617,0C548.6,0,480,0,411,0C342.9,0,274,0,206,0C137.1,0,69,0,34,0L0,0Z"></path></svg>